<svg width="111" height="111" viewBox="0 0 111 111" fill="none" xmlns="http://www.w3.org/2000/svg">
<path d="M0 55.5C0 24.8482 24.8482 0 55.5 0C86.1518 0 111 24.8482 111 55.5C111 86.1518 86.1518 111 55.5 111C24.8482 111 0 86.1518 0 55.5Z" fill="#D1FAE5"/>
<path d="M0 55.5C0 24.8482 24.8482 0 55.5 0C86.1518 0 111 24.8482 111 55.5C111 86.1518 86.1518 111 55.5 111C24.8482 111 0 86.1518 0 55.5Z" stroke="#E5E7EB"/>
<path d="M42 40H91V75H42V40Z" stroke="#E5E7EB"/>
<path d="M42 40H91V75H42V40Z" stroke="#E5E7EB"/>
<path d="M81.9747 36.0252C83.3418 37.3922 83.3418 39.6122 81.9747 40.9791L53.9778 68.9748C52.6108 70.3417 50.3907 70.3417 49.0237 68.9748L35.0253 54.977C33.6582 53.61 33.6582 51.39 35.0253 50.023C36.3923 48.6561 38.6124 48.6561 39.9794 50.023L51.5062 61.5384L77.0315 36.0252C78.3986 34.6583 80.6186 34.6583 81.9857 36.0252H81.9747Z" fill="#10B981"/>
</svg>
