<svg width="13" height="14" viewBox="0 0 13 14" fill="none" xmlns="http://www.w3.org/2000/svg">
<path d="M6.08141 1.54995C6.2159 1.23819 6.28315 1.0823 6.37444 1.0325C6.45386 0.989167 6.54614 0.989167 6.62556 1.0325C6.71685 1.0823 6.7841 1.23819 6.91859 1.54995L8.19452 4.50774C8.23423 4.59978 8.25408 4.6458 8.28309 4.68153C8.30878 4.71316 8.33959 4.7388 8.37381 4.75701C8.41246 4.77757 8.45684 4.78499 8.5456 4.79984L11.3997 5.27718C11.7002 5.32745 11.8505 5.35258 11.92 5.43658C11.9805 5.50966 12.009 5.61008 11.9975 5.70988C11.9842 5.82459 11.8755 5.94584 11.6579 6.18834L9.59341 8.48918C9.52906 8.56091 9.49688 8.59677 9.47612 8.63944C9.45773 8.67722 9.44594 8.71873 9.44139 8.76165C9.43625 8.81014 9.44384 8.8608 9.45903 8.96211L9.94615 12.2119C9.99753 12.5547 10.0232 12.7261 9.97494 12.8278C9.93293 12.9163 9.85827 12.9784 9.77174 12.9967C9.67229 13.0178 9.53779 12.9369 9.26879 12.775L6.71727 11.2396C6.63778 11.1918 6.59803 11.1679 6.55615 11.1585C6.51907 11.1501 6.48093 11.1501 6.44385 11.1585C6.40198 11.1679 6.36223 11.1918 6.28273 11.2396L3.73121 12.775C3.46221 12.9369 3.32771 13.0178 3.22826 12.9967C3.14173 12.9784 3.06707 12.9163 3.02507 12.8278C2.97679 12.7261 3.00248 12.5547 3.05385 12.2119L3.54097 8.96211C3.55616 8.8608 3.56375 8.81014 3.55861 8.76165C3.55406 8.71873 3.54227 8.67722 3.52389 8.63944C3.50312 8.59677 3.47094 8.56091 3.40659 8.48918L1.34213 6.18834C1.12455 5.94584 1.01575 5.82459 1.00251 5.70988C0.990995 5.61008 1.01945 5.50966 1.07996 5.43658C1.1495 5.35258 1.29978 5.32745 1.60032 5.27718L4.4544 4.79984C4.54316 4.78499 4.58754 4.77757 4.62619 4.75701C4.66041 4.7388 4.69122 4.71316 4.71691 4.68153C4.74592 4.6458 4.76577 4.59978 4.80548 4.50774L6.08141 1.54995Z" stroke="black" stroke-linecap="round" stroke-linejoin="round"/>
</svg>
