<svg width="45" height="36" viewBox="0 0 45 36" fill="none" xmlns="http://www.w3.org/2000/svg">
<path d="M14.625 24.75C22.7039 24.75 29.25 19.2094 29.25 12.375C29.25 5.54063 22.7039 0 14.625 0C6.5461 0 6.59376e-06 5.54063 6.59376e-06 12.375C6.59376e-06 15.0891 1.0336 17.5992 2.78438 19.6453C2.53829 20.3062 2.17266 20.8898 1.78594 21.382C1.44844 21.818 1.10391 22.1555 0.850788 22.3875C0.724225 22.5 0.618757 22.5914 0.548444 22.6477C0.513288 22.6758 0.485163 22.6969 0.4711 22.7039L0.457038 22.718C0.0703191 23.0063 -0.0984309 23.5125 0.0562566 23.9695C0.210944 24.4266 0.63985 24.75 1.12501 24.75C2.65782 24.75 4.20469 24.3563 5.49141 23.8711C6.13829 23.625 6.74298 23.3508 7.27032 23.0695C9.42891 24.1383 11.9391 24.75 14.625 24.75ZM31.5 12.375C31.5 20.2711 24.532 26.2195 16.2774 26.9297C17.9859 32.1609 23.6531 36 30.375 36C33.0609 36 35.5711 35.3883 37.7367 34.3195C38.2641 34.6008 38.8617 34.875 39.5086 35.1211C40.7953 35.6063 42.3422 36 43.875 36C44.3602 36 44.7961 35.6836 44.9438 35.2195C45.0914 34.7555 44.9297 34.2492 44.5359 33.9609L44.5219 33.9469C44.5078 33.9328 44.4797 33.9188 44.4445 33.8906C44.3742 33.8344 44.2688 33.75 44.1422 33.6305C43.8891 33.3984 43.5445 33.0609 43.207 32.625C42.8203 32.1328 42.4547 31.5422 42.2086 30.8883C43.9594 28.8492 44.993 26.3391 44.993 23.618C44.993 17.093 39.0234 11.7422 31.4508 11.2781C31.4789 11.6367 31.493 12.0023 31.493 12.368L31.5 12.375Z" fill="#12B76A"/>
</svg>
