<svg width="40" height="40" viewBox="0 0 40 40" fill="none" xmlns="http://www.w3.org/2000/svg">
<g clip-path="url(#clip0_477_1188)">
<path d="M20 16.3635V24.109H30.7636C30.291 26.5999 28.8726 28.7091 26.7454 30.1272L33.2362 35.1636C37.0181 31.6728 39.1999 26.5455 39.1999 20.4546C39.1999 19.0365 39.0727 17.6727 38.8362 16.3637L20 16.3635Z" fill="#4285F4"/>
<path d="M8.79135 23.8066L7.32741 24.9273L2.14551 28.9636C5.43641 35.4908 12.1814 39.9999 19.9995 39.9999C25.3993 39.9999 29.9266 38.2181 33.2357 35.1636L26.7449 30.1272C24.963 31.3272 22.6903 32.0546 19.9995 32.0546C14.7995 32.0546 10.3815 28.5455 8.79953 23.8182L8.79135 23.8066Z" fill="#34A853"/>
<path d="M2.1453 11.0364C0.781737 13.7272 0 16.7636 0 19.9999C0 23.2362 0.781737 26.2726 2.1453 28.9634C2.1453 28.9815 8.79996 23.7998 8.79996 23.7998C8.39996 22.5998 8.16353 21.3271 8.16353 19.9997C8.16353 18.6722 8.39996 17.3996 8.79996 16.1996L2.1453 11.0364Z" fill="#FBBC05"/>
<path d="M19.9999 7.96363C22.9454 7.96363 25.5635 8.98179 27.6544 10.9454L33.3816 5.21825C29.9089 1.98194 25.4 0 19.9999 0C12.1818 0 5.43641 4.4909 2.14551 11.0364L8.79996 16.2C10.3817 11.4727 14.7999 7.96363 19.9999 7.96363Z" fill="#EA4335"/>
</g>
<defs>
<clipPath id="clip0_477_1188">
<rect width="40" height="40" fill="white"/>
</clipPath>
</defs>
</svg>
