<svg width="18" height="16" viewBox="0 0 18 16" fill="none" xmlns="http://www.w3.org/2000/svg">
<path d="M17.5962 7.9402L17.5938 7.96222V7.98438C17.5938 8.31952 17.3106 8.5875 16.9937 8.5875H15.9937H15.592L15.5938 8.98925L15.6156 13.9937C15.6156 13.994 15.6156 13.9943 15.6156 13.9946C15.6156 14.0594 15.6108 14.1279 15.6024 14.2027L15.6 14.2247V14.2469V14.75C15.6 15.2197 15.2197 15.6 14.75 15.6H14.25C14.2126 15.6 14.1964 15.5997 14.1831 15.5985L14.1508 15.5956L14.1184 15.5979C14.0912 15.5998 14.0617 15.6 14.0156 15.6H13H12.25C11.7803 15.6 11.4 15.2197 11.4 14.75V14V12C11.4 11.226 10.774 10.6 10 10.6H8C7.22596 10.6 6.6 11.226 6.6 12V14V14.75C6.6 15.2197 6.21971 15.6 5.75 15.6H5H4.00313C3.9718 15.6 3.93823 15.5979 3.88911 15.5946L3.85918 15.5926L3.82928 15.5951C3.78896 15.5985 3.76807 15.6 3.75 15.6H3.25C2.78029 15.6 2.4 15.2197 2.4 14.75V11.25C2.4 11.2351 2.40002 11.2255 2.40025 11.2168C2.40045 11.2094 2.40071 11.2064 2.40071 11.2064L2.40313 11.1847V11.1625V8.9875V8.5875H2.00312H1C0.659232 8.5875 0.4 8.32991 0.4 7.98438C0.4 7.80899 0.452115 7.66436 0.586606 7.52608L8.58784 0.551526L8.59816 0.542527L8.60784 0.532843C8.71537 0.425317 8.83436 0.4 9.0125 0.4C9.16394 0.4 9.31254 0.444434 9.40932 0.523276L17.3859 7.53481L17.3866 7.53541C17.5707 7.6965 17.6088 7.82686 17.5962 7.9402Z" fill="white" stroke="black" stroke-width="0.8"/>
</svg>
