<svg width="18" height="18" viewBox="0 0 18 18" fill="none" xmlns="http://www.w3.org/2000/svg">
<path d="M8.75391 4.50781C6.26953 4.50781 4.26562 6.51172 4.26562 8.99609C4.26562 11.4805 6.26953 13.4844 8.75391 13.4844C11.2383 13.4844 13.2422 11.4805 13.2422 8.99609C13.2422 6.51172 11.2383 4.50781 8.75391 4.50781ZM8.75391 11.9141C7.14844 11.9141 5.83594 10.6055 5.83594 8.99609C5.83594 7.38672 7.14453 6.07812 8.75391 6.07812C10.3633 6.07812 11.6719 7.38672 11.6719 8.99609C11.6719 10.6055 10.3594 11.9141 8.75391 11.9141ZM14.4727 4.32422C14.4727 4.90625 14.0039 5.37109 13.4258 5.37109C12.8438 5.37109 12.3789 4.90234 12.3789 4.32422C12.3789 3.74609 12.8477 3.27734 13.4258 3.27734C14.0039 3.27734 14.4727 3.74609 14.4727 4.32422ZM17.4453 5.38672C17.3789 3.98438 17.0586 2.74219 16.0312 1.71875C15.0078 0.695312 13.7656 0.375 12.3633 0.304687C10.918 0.222656 6.58594 0.222656 5.14062 0.304687C3.74219 0.371094 2.5 0.691406 1.47266 1.71484C0.445313 2.73828 0.128906 3.98047 0.0585937 5.38281C-0.0234375 6.82812 -0.0234375 11.1602 0.0585937 12.6055C0.125 14.0078 0.445313 15.25 1.47266 16.2734C2.5 17.2969 3.73828 17.6172 5.14062 17.6875C6.58594 17.7695 10.918 17.7695 12.3633 17.6875C13.7656 17.6211 15.0078 17.3008 16.0312 16.2734C17.0547 15.25 17.375 14.0078 17.4453 12.6055C17.5273 11.1602 17.5273 6.83203 17.4453 5.38672ZM15.5781 14.1562C15.2734 14.9219 14.6836 15.5117 13.9141 15.8203C12.7617 16.2773 10.0273 16.1719 8.75391 16.1719C7.48047 16.1719 4.74219 16.2734 3.59375 15.8203C2.82812 15.5156 2.23828 14.9258 1.92969 14.1562C1.47266 13.0039 1.57813 10.2695 1.57813 8.99609C1.57813 7.72266 1.47656 4.98438 1.92969 3.83594C2.23438 3.07031 2.82422 2.48047 3.59375 2.17187C4.74609 1.71484 7.48047 1.82031 8.75391 1.82031C10.0273 1.82031 12.7656 1.71875 13.9141 2.17187C14.6797 2.47656 15.2695 3.06641 15.5781 3.83594C16.0352 4.98828 15.9297 7.72266 15.9297 8.99609C15.9297 10.2695 16.0352 13.0078 15.5781 14.1562Z" fill="black"/>
</svg>
