<svg width="36" height="34" viewBox="0 0 36 34" fill="none" xmlns="http://www.w3.org/2000/svg">
<path d="M12.9375 3.375H23.0625C23.3719 3.375 23.625 3.62812 23.625 3.9375V6.75H12.375V3.9375C12.375 3.62812 12.6281 3.375 12.9375 3.375ZM9 3.9375V6.75H4.5C2.01797 6.75 0 8.76797 0 11.25V18H13.5H22.5H36V11.25C36 8.76797 33.982 6.75 31.5 6.75H27V3.9375C27 1.76484 25.2352 0 23.0625 0H12.9375C10.7648 0 9 1.76484 9 3.9375ZM36 20.25H22.5V22.5C22.5 23.7445 21.4945 24.75 20.25 24.75H15.75C14.5055 24.75 13.5 23.7445 13.5 22.5V20.25H0V29.25C0 31.732 2.01797 33.75 4.5 33.75H31.5C33.982 33.75 36 31.732 36 29.25V20.25Z" fill="#12B76A"/>
</svg>
