<svg width="41" height="31" viewBox="0 0 41 31" fill="none" xmlns="http://www.w3.org/2000/svg">
<path d="M17.55 30.9023C18.3094 31.1695 19.125 30.6141 19.125 29.8125V3.27656C19.125 2.98125 19.0125 2.68594 18.7734 2.50312C17.3953 1.40625 14.2313 0 10.125 0C6.57422 0 3.25547 0.935156 1.27266 1.69453C0.478125 2.00391 0 2.79141 0 3.64219V29.6789C0 30.5156 0.9 31.0992 1.69453 30.8391C3.90938 30.1008 7.41797 29.25 10.125 29.25C12.5086 29.25 15.6797 30.2344 17.55 30.9023ZM22.95 30.9023C24.8203 30.2344 27.9914 29.25 30.375 29.25C33.082 29.25 36.5906 30.1008 38.8055 30.8391C39.6 31.1063 40.5 30.5156 40.5 29.6789V3.64219C40.5 2.79141 40.0219 2.00391 39.2273 1.70156C37.2445 0.935156 33.9258 0 30.375 0C26.2687 0 23.1047 1.40625 21.7266 2.50312C21.4945 2.68594 21.375 2.98125 21.375 3.27656V29.8125C21.375 30.6141 22.1977 31.1695 22.95 30.9023Z" fill="#12B76A"/>
</svg>
