<svg width="40" height="40" viewBox="0 0 40 40" fill="none" xmlns="http://www.w3.org/2000/svg">
<path d="M20 0C8.735 0 0 8.25477 0 19.3995C0 25.2293 2.39 30.2692 6.28 33.7491C6.605 34.0391 6.805 34.4491 6.815 34.889L6.925 38.4489C6.93301 38.7109 7.00524 38.9668 7.13533 39.1943C7.26543 39.4218 7.44941 39.6138 7.67111 39.7536C7.89281 39.8933 8.14544 39.9764 8.40679 39.9957C8.66815 40.0149 8.93023 39.9697 9.17 39.8639L13.14 38.114C13.475 37.964 13.855 37.939 14.21 38.034C16.035 38.5339 17.975 38.8039 20 38.8039C31.265 38.8039 40 30.5492 40 19.4045C40 8.25977 31.265 0 20 0Z" fill="url(#paint0_radial_477_1190)"/>
<path d="M7.9899 25.0744L13.8649 15.7547C14.0859 15.4038 14.3773 15.1026 14.7206 14.8699C15.0639 14.6373 15.4517 14.4784 15.8595 14.4033C16.2673 14.3281 16.6863 14.3383 17.09 14.4332C17.4937 14.5281 17.8733 14.7057 18.2049 14.9547L22.8799 18.4596C23.0886 18.6159 23.3425 18.6999 23.6032 18.699C23.8639 18.6981 24.1173 18.6123 24.3249 18.4546L30.6349 13.6647C31.4749 13.0248 32.5749 14.0347 32.0149 14.9297L26.1349 24.2445C25.9139 24.5953 25.6225 24.8966 25.2792 25.1292C24.9359 25.3618 24.5481 25.5207 24.1403 25.5959C23.7325 25.671 23.3135 25.6609 22.9098 25.5659C22.5061 25.471 22.1265 25.2935 21.7949 25.0444L17.1199 21.5395C16.9112 21.3833 16.6573 21.2992 16.3966 21.3002C16.1358 21.3011 15.8825 21.3868 15.6749 21.5445L9.3649 26.3344C8.5249 26.9744 7.4249 25.9694 7.9899 25.0744Z" fill="white"/>
<defs>
<radialGradient id="paint0_radial_477_1190" cx="0" cy="0" r="1" gradientUnits="userSpaceOnUse" gradientTransform="translate(6.7 39.9989) scale(44 43.9988)">
<stop stop-color="#0099FF"/>
<stop offset="0.6" stop-color="#A033FF"/>
<stop offset="0.9" stop-color="#FF5280"/>
<stop offset="1" stop-color="#FF7061"/>
</radialGradient>
</defs>
</svg>
