<svg width="20" height="16" viewBox="0 0 20 16" fill="none" xmlns="http://www.w3.org/2000/svg">
<path d="M3.4 4C3.4 3.04522 3.77928 2.12955 4.45442 1.45442C5.12955 0.779285 6.04522 0.4 7 0.4C7.95478 0.4 8.87045 0.779285 9.54558 1.45442C10.2207 2.12955 10.6 3.04522 10.6 4C10.6 4.95478 10.2207 5.87045 9.54558 6.54558C8.87045 7.22072 7.95478 7.6 7 7.6C6.04522 7.6 5.12955 7.22072 4.45442 6.54558C3.77928 5.87045 3.4 4.95478 3.4 4ZM0.4 15.0719C0.4 12.2147 2.71466 9.9 5.57188 9.9H8.42813C11.2853 9.9 13.6 12.2147 13.6 15.0719C13.6 15.3635 13.3635 15.6 13.0719 15.6H0.928125C0.636539 15.6 0.4 15.3635 0.4 15.0719ZM19.0406 15.6H15.3234C15.3731 15.4088 15.4 15.2079 15.4 15V14.75C15.4 13.0878 14.7885 11.5652 13.7799 10.4H14.9594C17.5228 10.4 19.6 12.4772 19.6 15.0406C19.6 15.3501 19.3487 15.6 19.0406 15.6ZM13.5 7.6C12.7608 7.6 12.0835 7.34153 11.5502 6.90998C12.0888 6.06953 12.4 5.07041 12.4 4C12.4 3.22558 12.2365 2.48738 11.941 1.82007C12.4 1.55336 12.9319 1.4 13.5 1.4C15.2135 1.4 16.6 2.78654 16.6 4.5C16.6 6.21346 15.2135 7.6 13.5 7.6Z" fill="white" stroke="black" stroke-width="0.8"/>
</svg>
