<svg width="34" height="34" viewBox="0 0 34 34" fill="none" xmlns="http://www.w3.org/2000/svg">
<path d="M10.9671 11.7553C12.1271 14.1714 13.7084 16.4358 15.7111 18.4384C17.7137 20.441 19.9781 22.0224 22.3941 23.1823C22.602 23.2821 22.7059 23.332 22.8373 23.3703C23.3046 23.5065 23.8784 23.4087 24.2741 23.1254C24.3854 23.0456 24.4807 22.9504 24.6712 22.7598C25.2539 22.1772 25.5452 21.8858 25.8382 21.6954C26.943 20.977 28.3673 20.977 29.4721 21.6954C29.7651 21.8858 30.0564 22.1772 30.6391 22.7598L30.9639 23.0846C31.8496 23.9704 32.2925 24.4132 32.5331 24.8889C33.0115 25.8348 33.0115 26.9519 32.5331 27.8978C32.2925 28.3735 31.8496 28.8164 30.9639 29.7021L30.7012 29.9648C29.8185 30.8475 29.3771 31.2889 28.7771 31.6259C28.1112 32 27.0771 32.2689 26.3134 32.2667C25.6251 32.2646 25.1547 32.1311 24.214 31.8641C19.1583 30.4291 14.3877 27.7217 10.4078 23.7417C6.4278 19.7617 3.72034 14.9911 2.28539 9.93548C2.01838 8.99474 1.88487 8.52436 1.88283 7.83612C1.88055 7.07242 2.14949 6.03826 2.52352 5.37242C2.8606 4.77237 3.30196 4.33102 4.18466 3.44831L4.44739 3.18559C5.33312 2.29985 5.77599 1.85698 6.25163 1.61641C7.19756 1.13796 8.31467 1.13796 9.26061 1.61641C9.73624 1.85698 10.1791 2.29985 11.0648 3.18559L11.3896 3.51037C11.9723 4.09305 12.2636 4.38438 12.4541 4.67735C13.1724 5.78216 13.1724 7.20647 12.4541 8.31128C12.2636 8.60425 11.9723 8.89558 11.3896 9.47826C11.1991 9.66878 11.1038 9.76404 11.0241 9.8754C10.7408 10.2711 10.6429 10.8449 10.7791 11.3121C10.8175 11.4436 10.8673 11.5475 10.9671 11.7553Z" stroke="#059669" stroke-width="2" stroke-linecap="round" stroke-linejoin="round"/>
</svg>
