<svg width="21" height="32" viewBox="0 0 21 32" fill="none" xmlns="http://www.w3.org/2000/svg">
<path d="M4.5 9C4.5 6.51797 6.51797 4.5 9 4.5H11.25C13.732 4.5 15.75 6.51797 15.75 9V9.25313C15.75 10.7859 14.9695 12.2133 13.6828 13.0359L10.7156 14.9414C8.94375 16.0805 7.875 18.0422 7.875 20.1445V20.25C7.875 21.4945 8.88047 22.5 10.125 22.5C11.3695 22.5 12.375 21.4945 12.375 20.25V20.1516C12.375 19.575 12.6703 19.0406 13.1484 18.7312L16.1156 16.8258C18.6891 15.1664 20.25 12.3188 20.25 9.25313V9C20.25 4.02891 16.2211 0 11.25 0H9C4.02891 0 0 4.02891 0 9C0 10.2445 1.00547 11.25 2.25 11.25C3.49453 11.25 4.5 10.2445 4.5 9ZM10.125 31.5C10.8709 31.5 11.5863 31.2037 12.1137 30.6762C12.6412 30.1488 12.9375 29.4334 12.9375 28.6875C12.9375 27.9416 12.6412 27.2262 12.1137 26.6988C11.5863 26.1713 10.8709 25.875 10.125 25.875C9.37908 25.875 8.66371 26.1713 8.13626 26.6988C7.60882 27.2262 7.3125 27.9416 7.3125 28.6875C7.3125 29.4334 7.60882 30.1488 8.13626 30.6762C8.66371 31.2037 9.37908 31.5 10.125 31.5Z" fill="#12B76A"/>
</svg>
