<svg width="46" height="36" viewBox="0 0 46 36" fill="none" xmlns="http://www.w3.org/2000/svg">
<path d="M11.75 4.5C11.75 2.01797 13.768 0 16.25 0H41C43.482 0 45.5 2.01797 45.5 4.5V24.75C45.5 27.232 43.482 29.25 41 29.25H24.1812C23.3516 27.457 22.0789 25.9102 20.4969 24.75H27.5V22.5C27.5 21.2555 28.5055 20.25 29.75 20.25H34.25C35.4945 20.25 36.5 21.2555 36.5 22.5V24.75H41V4.5H16.25V7.95234C14.9281 7.18594 13.3883 6.75 11.75 6.75V4.5ZM11.75 9C12.6364 9 13.5142 9.17459 14.3331 9.51381C15.1521 9.85303 15.8962 10.3502 16.523 10.977C17.1498 11.6038 17.647 12.3479 17.9862 13.1669C18.3254 13.9858 18.5 14.8636 18.5 15.75C18.5 16.6364 18.3254 17.5142 17.9862 18.3331C17.647 19.1521 17.1498 19.8962 16.523 20.523C15.8962 21.1498 15.1521 21.647 14.3331 21.9862C13.5142 22.3254 12.6364 22.5 11.75 22.5C10.8636 22.5 9.98583 22.3254 9.16689 21.9862C8.34794 21.647 7.60382 21.1498 6.97703 20.523C6.35023 19.8962 5.85303 19.1521 5.51381 18.3331C5.17459 17.5142 5 16.6364 5 15.75C5 14.8636 5.17459 13.9858 5.51381 13.1669C5.85303 12.3479 6.35023 11.6038 6.97703 10.977C7.60382 10.3502 8.34794 9.85303 9.16689 9.51381C9.98583 9.17459 10.8636 9 11.75 9ZM9.87266 24.75H13.6203C18.8023 24.75 23 28.9477 23 34.1227C23 35.1562 22.1633 36 21.1227 36H2.37734C1.33672 36 0.5 35.1633 0.5 34.1227C0.5 28.9477 4.69766 24.75 9.87266 24.75Z" fill="#2563EB"/>
</svg>
