<svg width="111" height="111" viewBox="0 0 111 111" fill="none" xmlns="http://www.w3.org/2000/svg">
<path d="M0 55.5C0 24.8482 24.8482 0 55.5 0C86.1518 0 111 24.8482 111 55.5C111 86.1518 86.1518 111 55.5 111C24.8482 111 0 86.1518 0 55.5Z" fill="#EE8789"/>
<path d="M0 55.5C0 24.8482 24.8482 0 55.5 0C86.1518 0 111 24.8482 111 55.5C111 86.1518 86.1518 111 55.5 111C24.8482 111 0 86.1518 0 55.5Z" stroke="#E5E7EB"/>
<path d="M32.2297 84L53.8297 53.28L71.5897 28H79.6697L58.3897 57.44L40.3897 84H32.2297ZM71.5897 84L53.5897 57.44L32.3097 28H40.3897L58.1497 53.2L79.7497 84H71.5897Z" fill="#FF0707"/>
</svg>
